<?xml version="1.0" encoding="iso-8859-1"?>
<!-- Generator: Adobe Illustrator 19.0.0, SVG Export Plug-In . SVG Version: 6.00 Build 0)  -->
<svg xmlns="http://www.w3.org/2000/svg" xmlns:xlink="http://www.w3.org/1999/xlink" version="1.1" id="Capa_1" x="0px" y="0px" viewBox="0 0 403 403" style="enable-background:new 0 0 403 403;" xml:space="preserve" width="512px" height="512px">
<g>
	<path d="M400.677,280.862c-9.151-9.217-224.277-225.889-237.112-238.406c-14.551-14.192-33.761-22.009-54.091-22.009   c-36.771,0-67.62,25.76-75.503,60.176L4.422,95.398C1.712,96.753,0,99.523,0,102.553s1.712,5.8,4.422,7.155l32,16   c0.277,0.138,0.559,0.257,0.843,0.361c2.562,6.56,6.03,12.786,10.379,18.536c8.025,10.612,18.793,19.052,30.92,24.358   c-5.69,13.417-8.669,27.99-8.669,42.642c0,60.132,48.921,109.053,109.053,109.053c1.689,0,3.373-0.043,5.053-0.12v46.014h-40   c-4.418,0-8,3.582-8,8s3.582,8,8,8h64c4.418,0,8-3.582,8-8s-3.582-8-8-8h-8v-47.961c18.309-3.592,35.46-11.817,49.808-24.093H395   c3.23,0,6.144-1.943,7.386-4.925C403.627,286.592,402.953,283.155,400.677,280.862z M25.889,102.553l6.142-3.071   c0.042,2.126,0.168,4.237,0.378,6.331L25.889,102.553z M249.886,278.499c-0.291-0.032-0.586-0.052-0.886-0.052h-42   c-23.978,0-46.444-11.794-60.098-31.548c-2.513-3.635-7.495-4.542-11.13-2.032c-3.635,2.512-4.544,7.495-2.032,11.13   c16.641,24.076,44.028,38.45,73.26,38.45h14.313c-13.002,6.656-27.481,10.211-42.365,10.211c-51.31,0-93.053-41.743-93.053-93.053   c0-15.104,3.706-30.106,10.718-43.383c1.118-2.117,1.229-4.623,0.303-6.831c-0.926-2.207-2.791-3.884-5.085-4.57   C66.023,149.105,48,124.884,48,97.921c0-33.896,27.577-61.474,61.474-61.474c16.132,0,31.374,6.201,42.919,17.463   c10.895,10.625,174.691,175.548,223.39,224.589H249.886z" fill="#2e0152"/>
	<path d="M88,70.553c-8.822,0-16,7.178-16,16s7.178,16,16,16s16-7.178,16-16S96.822,70.553,88,70.553z" fill="#2e0152"/>
	<path d="M134,205.447c0-4.418-3.582-8-8-8s-8,3.582-8,8c0,6.67,0.742,13.321,2.205,19.771c0.843,3.713,4.141,6.231,7.795,6.231   c0.586,0,1.182-0.065,1.777-0.2c4.309-0.978,7.009-5.263,6.031-9.572C134.608,216.388,134,210.928,134,205.447z" fill="#2e0152"/>
</g>
<g>
</g>
<g>
</g>
<g>
</g>
<g>
</g>
<g>
</g>
<g>
</g>
<g>
</g>
<g>
</g>
<g>
</g>
<g>
</g>
<g>
</g>
<g>
</g>
<g>
</g>
<g>
</g>
<g>
</g>
</svg>
