<svg id="logo" xmlns="http://www.w3.org/2000/svg" viewBox="0 0 841.89 260">
  <path fill="#ffffff" d="M476.29,99.15c3-3.09,5.51-6.29,8.61-8.72,10.78-8.42,22.71-10,35.24-4.5,7.42,3.26,11.41,9.49,11.68,17.51s-.4,16.33-.29,24.5A61.76,61.76,0,0,0,533,141.83c2.45,9.89,13,12.45,20.19,5.08.49-.5.29-2,0-2.88-3.23-9.8-3.8-19.66-.79-29.61,5.84-19.28,23.16-31.91,44.06-32.19,7.41-.1,14.6.85,21.82,4.64,0-1.48,0-2.52,0-3.55-.39-11.05-1-22.11-1.13-33.16A12.07,12.07,0,0,1,631.62,38c5.41,1,9.8,5.76,9.69,11.26-.28,13.78-.91,27.56-1.23,41.34-.37,16.33-1,32.68,1.82,48.89a25.58,25.58,0,0,0,.95,3.43c1.12,3.47,2.82,6.55,6.79,7.2,4.61.76,8.88-.21,12.1-3.83.57-.64.51-2.18.24-3.16-4-14.41-3.13-28.33,4.54-41.4,8.41-14.34,25.7-22.15,42.16-19.54,7.54,1.2,14.39,3.69,19.41,9.65,8.74,10.38,6.7,27-4.2,35.83-7.71,6.22-16.83,8.65-26.41,9.78-3.61.42-7.25.57-11.14.87a15.43,15.43,0,0,0,8.47,9.76c5.37,2.6,11.14,2.9,17,2.52,14.67-1,26.5-7.85,37-17.6a6.08,6.08,0,0,0,2.12-5.15q-.75-14.28-1.42-28.56a50.49,50.49,0,0,1-.09-5.1,12.12,12.12,0,0,1,24.2.41c0,1.35,0,2.7,0,4.74,1-1.28,1.69-2.11,2.36-2.91,6.86-8.18,15.11-13.71,26.26-13.51,9,.17,15.26,5.1,16.6,12.93,1.56,9.12-6.69,16.45-15.39,13.46a13.44,13.44,0,0,1-4.81-3.58c-2.66-2.75-4.22-3.26-7.64-1.48-5.79,3-9.69,8-13.1,13.32-4.22,6.62-6.57,13.67-5.45,21.78a161.07,161.07,0,0,1,1.1,18.08,11.81,11.81,0,0,1-9.35,11.6,12.11,12.11,0,0,1-13.54-6.3,18.89,18.89,0,0,1-1.35-5.39,41.11,41.11,0,0,1,0-5.23c-11.58,8.56-23.81,14.78-38,15.75s-27.72-.83-39.55-10a31.68,31.68,0,0,1-14,9,36.4,36.4,0,0,1-19.18.43,20.56,20.56,0,0,1-14.69-12.38c-.73.58-1.33,1-1.85,1.47-15.55,14.57-39.56,16.28-56.68,3.92-1.62-1.17-2.53-.89-3.92.18-9.93,7.66-21.08,10.42-33.39,7.79-10.76-2.3-17.11-8.84-18.2-20.21-.86-9-.35-18.17-.47-27.25,0-3.56.28-7.19-.29-10.67-1.26-7.69-7.85-10.9-14.68-7.13a31,31,0,0,0-7.47,6.06c-5.25,5.63-9.19,12.26-10.71,19.76-1.06,5.23-.58,10.79-.54,16.21,0,3.91.59,7.81.66,11.72.12,6.22-3.65,11-9.37,12.32a12.38,12.38,0,0,1-14-6.93c-.18-.37-.38-.73-.49-.95-20.9,10.11-40.1,10.29-56.85-8.62-6.76,10-16.81,14.62-29.28,15.26,1,1.57,1.76,2.84,2.53,4.11,8.71,14.39,11.31,29.66,5.7,45.71-7.41,21.17-28.51,26.46-43.75,21.55-10-3.21-15.18-11-16.69-20.75-1.22-7.92-1.19-16.09-1.16-24.14.05-11.65.62-23.3,1-35,0-1.42,0-2.84,0-4.27l-.76-.54a66.92,66.92,0,0,1-4.86,5.41c-11.6,10.48-24.9,11.65-39,6.51-7.25-2.63-11.77-8.17-14-15.52-.4-1.29-.73-2.61-1.2-4.3-.87.7-1.56,1.24-2.22,1.81-10.35,8.87-21.76,15.84-35.32,18.41-14,2.65-27.68,1.77-40.45-5-3.53-1.87-6.54-4.83-9.48-7.63-1.29-1.23-2-1.25-3.38-.48a119,119,0,0,1-37.47,13.53c-17,2.92-33.86,2.85-50.63-1.41a6,6,0,0,0-1.1-.13c0,6.72-.11,13.33,0,19.95.12,5.7.35,11.41.82,17.08C75.51,211.34,65,218,57,215.19c-4.51-1.61-6.31-5.46-6.34-9.89-.05-7,.21-14,.57-20.92a790.79,790.79,0,0,0-.48-82.71c-.11-2.12-.18-4.25-.16-6.38,0-6,3.2-10.3,8.59-11.89a12.42,12.42,0,0,1,14,5.31c.28.42.54.86,1,1.53,1-.62,2-1.22,3-1.79,15.08-8.82,30.49-8.91,45.71-.82,11.31,6,16.63,16.35,18.23,28.79a45.76,45.76,0,0,1-7.87,32.93,6.11,6.11,0,0,0-.37,1.18,40.6,40.6,0,0,0,5.26-1.5c6.45-2.84,12.84-5.82,19.26-8.72,1.36-.62,1.67-1.37,1.43-3-2.44-16.37.17-31.43,12.27-43.68C182.61,82,201.91,78.37,217,85c19.81,8.73,17.82,32.58,5,42.75-6.66,5.3-14.41,7.91-22.65,9.17-4.84.74-9.74,1-14.85,1.54a15.8,15.8,0,0,0,9,9.85c7.68,3.3,15.65,2.92,23.57,1.3,15-3.09,26.29-12.27,36.28-23.31a3.19,3.19,0,0,0,.77-1.82c.41-7.48.76-15,1.11-22.44a8.08,8.08,0,0,0-.22-1.34c-2,.11-4,.17-6,.33-6.88.53-11.86-4.55-10.7-10.93.77-4.2,4.31-7.07,9-7.2,2.36-.07,4.73,0,7.32,0,0-1.65.05-3.16,0-4.65-.28-6.63-.73-13.26-.87-19.89-.15-7.38,5-12.74,12-12.79S278.1,50.83,278,58.35c-.08,7.06-.43,14.12-.67,21.18,0,1.09-.1,2.18-.15,3.43h8.51c3.32,0,6.65-.13,10,0,4.9.16,8.35,3.45,8.63,8,.32,5.2-2.33,9.08-7.32,9.67-4,.47-8.13.13-12.21.14H276.6c-.09,1.63-.28,3.21-.25,4.78.2,10.12.35,20.24.75,30.35a21.16,21.16,0,0,0,1.77,6.87c2.83,7,8.25,9.44,15.46,7.25,5.37-1.63,9.28-5.28,12.76-9.41a83.65,83.65,0,0,0,6.21-8.42,7.65,7.65,0,0,0,1-4.06q-.4-32.17-1-64.34c-.13-7.51-.18-15,3-22C322,29.35,331.73,22.65,345.13,21c7.17-.88,14.15-.27,20.58,3.22,9.22,5,13.4,13.38,15,23.34,2.22,13.6-2.12,25.7-8.69,37.23-9.15,16.06-21.38,29.64-34.54,42.43-1.79,1.74-2.34,2.89-.42,5,2.91,3.19,5.1,7.06,8.16,10.07,7.2,7.07,19.35,8.87,28.52,4.63,6.5-3,9.34-8.57,10.65-15.24a25.36,25.36,0,0,0-2.11-16.38c-2.15-4.44-3.34-9.07-2-14.07,2.09-7.93,9.45-12.82,17.9-11.79A16.07,16.07,0,0,1,412,105.08c.1,4.17-1.36,7.84-3,11.46-3.31,7.14-2.65,14.29.09,21.31s8.49,10.07,15.64,11c12,1.52,21.05-3.14,27.52-13.13a7,7,0,0,0,1.19-3.77C453,121,452.64,110,452.07,99c-.3-5.7.1-11,5.59-14.31,4.26-2.6,8.61-2.4,12.85-.05,4,2.22,5.82,5.8,5.78,10.35C476.28,96.38,476.29,97.72,476.29,99.15Zm142.31,19.26c0-2.89.1-5.79-.06-8.68a4.87,4.87,0,0,0-1.21-2.89c-9.68-10-27.17-9.44-36.24,1.13-7.28,8.48-8.51,24.17-2.67,33.85a18.26,18.26,0,0,0,20.09,8.77C606.44,149,611.7,144,615.41,137,618.54,131.17,618.8,124.84,618.59,118.42ZM72.67,134.31h0c0,2,.33,4,.5,5.94a4.79,4.79,0,0,0,1.1,2.93c9.19,8.42,26.45,9.64,36.15-.65,7-7.42,8.9-21.27,4.34-31.43-3.69-8.22-10.15-12.31-19.1-11.47-10.62,1-17.27,7.51-20.39,17.15C73.48,122.33,73.48,128.45,72.67,134.31Zm263.78-30.6a3.58,3.58,0,0,0,.53-.46c6.54-7.53,12.51-15.47,17-24.44,4.32-8.71,7.3-17.78,5.92-27.7-.64-4.63-2.27-8.83-7.15-10.6-4.15-1.51-8.88.64-12,5.12s-3.72,9.56-3.82,14.8c-.13,6.29-.37,12.57-.43,18.86C336.4,87.42,336.46,95.56,336.46,103.72Zm.21,57.18c0,7-.08,13.5,0,20,.14,9.52.22,19.06.71,28.56a19.33,19.33,0,0,0,2.58,8.39c3.29,5.66,10.45,5.61,14.1.16,2.35-3.51,3.05-7.52,3.26-11.63C358.24,187.76,347.93,174.24,336.66,160.9Zm347.51-37.13c7.59-.24,14.71-.57,21.32-3.67a14.68,14.68,0,0,0,4.84-3.64,11.82,11.82,0,0,0,2.29-12.38c-1.55-4.14-4.77-6.34-9.1-6.76a13.64,13.64,0,0,0-9.39,2.63C686,105.69,684.5,114.22,684.17,123.77Zm-501.83,0c7.58-.22,14.69-.59,21.3-3.66a14.26,14.26,0,0,0,4.84-3.63c3.15-3.79,4.13-8.19,2.12-12.85a9.69,9.69,0,0,0-10.16-6.25,17.66,17.66,0,0,0-8.28,2.78C184.11,105.72,182.68,114.3,182.35,123.76Z"/>
  <path fill="#ffffff" d="M411.9,70.37a14.13,14.13,0,0,1,28.26,0,14.13,14.13,0,1,1-28.26,0Z"/>
</svg>
