<?xml version="1.0" encoding="iso-8859-1"?>
<!-- Generator: Adobe Illustrator 17.1.0, SVG Export Plug-In . SVG Version: 6.00 Build 0)  -->
<!DOCTYPE svg PUBLIC "-//W3C//DTD SVG 1.1//EN" "http://www.w3.org/Graphics/SVG/1.1/DTD/svg11.dtd">
<svg xmlns="http://www.w3.org/2000/svg" xmlns:xlink="http://www.w3.org/1999/xlink" version="1.1" id="Capa_1" x="0px" y="0px" viewBox="0 0 438.211 438.211" style="enable-background:new 0 0 438.211 438.211;" xml:space="preserve" width="512px" height="512px">
<path id="XMLID_804_" d="M437.298,245.974c-4.479,8.56-12.08,13.67-20.333,13.67c-3.146,0-6.196-0.742-9.017-2.134  c-7.727,25.184-19.535,43.099-35.145,53.346v9.691c0,6.584-2.911,11.043-5.727,15.356c-4.771,7.311-11.308,17.322-11.308,48.389  c0,4.418-3.582,8-8,8h-71.819c-2.824,0-5.439-1.489-6.88-3.918c-1.441-2.43-1.495-5.438-0.142-7.917l10.683-19.558V340.92  c0-4.418,3.582-8,8-8s8,3.582,8,8v22.021c0,1.34-0.337,2.658-0.979,3.835l-5.198,9.516h13.281l8.406-15.393v-39.684  c-8.32,1.933-17.265,2.937-26.369,2.937c-15.548,0-30.698-2.973-42.916-8.396c-7.375,0.09-14.93,0.041-22.558-0.146  c-1.042,5.046-3.505,9.053-6.077,13.234c-5.475,8.904-12.973,21.1-12.973,55.447c0,4.418-3.582,8-8,8h-71.818  c-2.824,0-5.439-1.489-6.88-3.918c-1.441-2.43-1.495-5.438-0.141-7.917l10.682-19.558v-34.978c0-4.418,3.582-8,8-8s8,3.582,8,8  v37.02c0,1.34-0.336,2.658-0.979,3.835l-5.197,9.516h13.28l8.407-15.393v-50.145c-5.675-0.771-11.028-1.615-15.981-2.521  c-8.912-1.628-25.564-6.388-36.948-19.97c-17.901-21.366-21.134-25.2-48.146-24.863c-0.035,0.001-0.07,0.001-0.104,0.001H17.459  C7.833,263.401,0,255.295,0,245.33v-32.339c0-9.964,7.833-18.069,17.459-18.069c24.101,0,55.922-34.443,71.431-57.595  c0.042-0.063,0.084-0.124,0.127-0.186l3.378-4.749c-4.175-4.021-7.253-8.785-7.907-14.486c-0.351-3.058-0.01-6.035,0.961-9.015  c-3.644-15.978-3.746-38.246-2.104-46.8c1.261-6.573,3.798-11.06,7.757-13.712c7.987-5.353,17.36-0.512,20.44,1.079  c3.926,2.027,5.465,6.853,3.438,10.778s-6.854,5.467-10.778,3.438c-2.203-1.137-3.551-1.529-4.254-1.663  c-0.238,0.521-0.58,1.475-0.891,3.095c-0.795,4.143-1.092,14.275-0.253,24.746c5.507-5.574,12.418-11.619,20.443-18.52  c22.887-20.227,38.328-30.461,49.532-22.953c3.96,2.653,6.498,7.14,7.756,13.716c1.703,8.852,1.217,21.837,0.401,37.889  c-0.63,16.995-2.011,28.875-4.347,37.386c-2.669,9.722-6.952,15.957-13.092,19.064c-8.362,4.23-18.065,1.465-25.584-1.419  c-4.125-1.582-6.188-6.208-4.606-10.334c1.582-4.125,6.213-6.187,10.333-4.605c6.321,2.424,10.572,3.124,12.634,2.081  c1.804-0.912,3.539-4.117,4.886-9.023c1.976-7.197,3.215-18.251,3.789-33.793c0.001-0.037,0.003-0.074,0.005-0.111  c0.736-14.468,1.233-27.021-0.132-34.118c-0.319-1.665-0.67-2.627-0.908-3.139c-2.309,0.33-9.567,3.227-30.11,21.384  c-0.027,0.024-0.055,0.048-0.082,0.072c-11.171,9.604-24.618,21.166-28.357,28.669c-0.138,0.389-1.078,3.143-0.981,3.984  c0.223,1.945,2.562,6.235,15.719,13.114c3.916,2.048,5.43,6.881,3.383,10.797c-2.047,3.915-6.881,5.428-10.796,3.383  c-1.064-0.557-2.146-1.138-3.232-1.744l-3.338,4.692c-4.735,7.052-44.615,64.597-84.662,64.597c-0.689,0-1.459,0.885-1.459,2.069  v32.339c0,1.186,0.771,2.071,1.459,2.071h36.886c15.358-0.191,25.296,1.362,33.252,5.135c6.298,1.248,15.324,2.034,24.188-0.686  c4.223-1.291,8.699,1.078,9.995,5.302s-1.077,8.699-5.301,9.995c-3.062,0.939-6.113,1.575-9.093,1.975  c2.344,2.674,4.815,5.624,7.531,8.865c8.156,9.731,20.769,13.267,27.561,14.507c6.64,1.214,14.06,2.315,22.057,3.274  c4.021,0.482,7.048,3.894,7.048,7.943v59.229c0,1.34-0.336,2.658-0.979,3.835l-5.197,9.516h18.961  c1.17-32.998,9.534-46.604,15.206-55.828c2.931-4.767,4.227-7.003,4.227-10.046v-3.039c0-2.173,0.883-4.251,2.447-5.759  s3.666-2.3,5.845-2.236c10.618,0.389,21.155,0.508,31.315,0.35c1.235-0.009,2.441,0.245,3.55,0.771  c10.404,4.932,23.826,7.648,37.796,7.648c11.341,0,22.294-1.772,31.677-5.126c2.448-0.878,5.173-0.505,7.3,0.993  c2.127,1.499,3.393,3.938,3.393,6.54v52.382c0,1.34-0.337,2.658-0.979,3.835l-5.197,9.516h18.972  c1.146-29.806,8.656-41.314,13.761-49.135c2.361-3.617,3.125-4.928,3.125-6.61v-14.21c0-2.923,1.594-5.612,4.157-7.017  c29.844-16.346,40.434-69.376,40.434-109.821c0-56.721-43.126-102.867-96.135-102.867H198.343c-4.418,0-8-3.582-8-8s3.582-8,8-8  H305.26c61.831,0,112.135,53.323,112.135,118.867c0,10.979-0.766,30.382-5.157,51.277c1.44,1.811,3.139,2.867,4.728,2.867  c2.155,0,4.514-1.949,6.155-5.088c2.048-3.915,6.882-5.426,10.798-3.38C437.833,237.225,439.346,242.059,437.298,245.974z   M110.271,162.355c-4.418,0-8,3.582-8,8v2.129c0,4.418,3.582,8,8,8s8-3.582,8-8v-2.129  C118.271,165.937,114.689,162.355,110.271,162.355z M358.448,190.889c0,4.418,3.582,8,8,8s8-3.582,8-8  c0-45.862-40.441-83.174-90.151-83.174c-4.418,0-8,3.582-8,8s3.582,8,8,8C325.183,123.715,358.448,153.849,358.448,190.889z" fill="#2E0152"/>
<g>
</g>
<g>
</g>
<g>
</g>
<g>
</g>
<g>
</g>
<g>
</g>
<g>
</g>
<g>
</g>
<g>
</g>
<g>
</g>
<g>
</g>
<g>
</g>
<g>
</g>
<g>
</g>
<g>
</g>
</svg>
